<svg xmlns="http://www.w3.org/2000/svg" role="img" aria-labelledby="title-ENERGY desc-ENERGY" viewBox="0 0 700 380" width="700" height="380">
<title id="title-ENERGY">GEO-INFER-ENERGY: Energy Systems Module</title>
<desc id="desc-ENERGY">Illustrative module overview; geometry computed with H3, no measured values.</desc>
<rect width="100%" height="100%" rx="12" fill="#f8fafc"/>
<text x="24" y="36" font-family="sans-serif" font-size="16" fill="#0f172a">GEO-INFER-ENERGY</text>
<text x="24" y="66" font-family="sans-serif" font-size="14" fill="#334155">Energy Systems Module</text>
<text x="24" y="92" font-family="sans-serif" font-size="12" fill="#475569">Domain</text>
<polygon data-h3="8728309b1ffffff" points="531.422,238.150 554.929,201.429 527.498,168.469 476.560,172.232 453.063,208.952 480.494,241.910 531.422,238.150" fill="#fde047" fill-opacity="0.45" stroke="#eab308"><title>8728309b1ffffff</title></polygon><polygon data-h3="872830984ffffff" points="453.063,208.952 476.560,172.232 449.123,139.283 398.189,143.057 374.703,179.778 402.140,212.724 453.063,208.952" fill="#fde047" fill-opacity="0.45" stroke="#eab308"><title>872830984ffffff</title></polygon><polygon data-h3="872830986ffffff" points="527.498,168.469 551.010,131.753 523.573,98.800 472.624,102.567 449.123,139.283 476.560,172.232 527.498,168.469" fill="#fde047" fill-opacity="0.45" stroke="#eab308"><title>872830986ffffff</title></polygon><polygon data-h3="8728309a2ffffff" points="457.002,278.635 480.494,241.910 453.063,208.952 402.140,212.724 378.658,249.449 406.089,282.403 457.002,278.635" fill="#fde047" fill-opacity="0.45" stroke="#eab308"><title>8728309a2ffffff</title></polygon><polygon data-h3="8728309b0ffffff" points="609.780,267.371 633.297,230.651 605.872,197.678 554.929,201.429 531.422,238.150 558.847,271.119 609.780,267.371" fill="#fde047" fill-opacity="0.45" stroke="#eab308"><title>8728309b0ffffff</title></polygon><polygon data-h3="8728309b3ffffff" points="605.872,197.678 629.394,160.962 601.963,127.998 551.010,131.753 527.498,168.469 554.929,201.429 605.872,197.678" fill="#fde047" fill-opacity="0.45" stroke="#eab308"><title>8728309b3ffffff</title></polygon><polygon data-h3="8728309b5ffffff" points="535.345,307.844 558.847,271.119 531.422,238.150 480.494,241.910 457.002,278.635 484.427,311.600 535.345,307.844" fill="#fde047" fill-opacity="0.45" stroke="#eab308"><title>8728309b5ffffff</title></polygon>
<circle cx="504.0" cy="205.20000000000002" r="3" fill="#eab308"/>
<text x="24" y="342" font-family="sans-serif" font-size="11" fill="#334155">Illustrative overview. H3 resolution 7; no measured values.</text>
<text x="24" y="362" font-family="sans-serif" font-size="10" fill="#475569">WGS84 · CC BY-NC-SA 4.0</text>
</svg>