<svg xmlns="http://www.w3.org/2000/svg" role="img" aria-labelledby="title-AG desc-AG" viewBox="0 0 700 380" width="700" height="380">
<title id="title-AG">GEO-INFER-AG: Agricultural Systems</title>
<desc id="desc-AG">Illustrative module overview; geometry computed with H3, no measured values.</desc>
<rect width="100%" height="100%" rx="12" fill="#f8fafc"/>
<text x="24" y="36" font-family="sans-serif" font-size="16" fill="#0f172a">GEO-INFER-AG</text>
<text x="24" y="66" font-family="sans-serif" font-size="14" fill="#334155">Agricultural Systems</text>
<text x="24" y="92" font-family="sans-serif" font-size="12" fill="#475569">Domain</text>
<polygon data-h3="8729abd2affffff" points="530.492,239.007 554.882,202.715 528.386,168.897 477.499,171.375 453.118,207.667 479.616,241.482 530.492,239.007" fill="#4ade80" fill-opacity="0.45" stroke="#16a34a"><title>8729abd2affffff</title></polygon><polygon data-h3="8729abd01ffffff" points="605.772,200.249 630.176,163.963 603.681,130.142 552.781,132.610 528.386,168.897 554.882,202.715 605.772,200.249" fill="#4ade80" fill-opacity="0.45" stroke="#16a34a"><title>8729abd01ffffff</title></polygon><polygon data-h3="8729abd05ffffff" points="607.862,270.369 632.261,234.078 605.772,200.249 554.882,202.715 530.492,239.007 556.983,272.832 607.862,270.369" fill="#4ade80" fill-opacity="0.45" stroke="#16a34a"><title>8729abd05ffffff</title></polygon><polygon data-h3="8729abd0cffffff" points="528.386,168.897 552.781,132.610 526.279,98.800 475.381,101.280 450.995,137.568 477.499,171.375 528.386,168.897" fill="#4ade80" fill-opacity="0.45" stroke="#16a34a"><title>8729abd0cffffff</title></polygon><polygon data-h3="8729abd28ffffff" points="455.240,277.778 479.616,241.482 453.118,207.667 402.244,210.154 377.877,246.451 404.376,280.262 455.240,277.778" fill="#4ade80" fill-opacity="0.45" stroke="#16a34a"><title>8729abd28ffffff</title></polygon><polygon data-h3="8729abd2bffffff" points="453.118,207.667 477.499,171.375 450.995,137.568 400.110,140.057 375.739,176.351 402.244,210.154 453.118,207.667" fill="#4ade80" fill-opacity="0.45" stroke="#16a34a"><title>8729abd2bffffff</title></polygon><polygon data-h3="8729abd2effffff" points="532.598,309.128 556.983,272.832 530.492,239.007 479.616,241.482 455.240,277.778 481.732,311.600 532.598,309.128" fill="#4ade80" fill-opacity="0.45" stroke="#16a34a"><title>8729abd2effffff</title></polygon>
<circle cx="504.0" cy="205.20000000000002" r="3" fill="#16a34a"/>
<text x="24" y="342" font-family="sans-serif" font-size="11" fill="#334155">Illustrative overview. H3 resolution 7; no measured values.</text>
<text x="24" y="362" font-family="sans-serif" font-size="10" fill="#475569">WGS84 · CC BY-NC-SA 4.0</text>
</svg>